<svg width="206" height="206" viewBox="0 0 206 206" fill="none" xmlns="http://www.w3.org/2000/svg">
<path fill-rule="evenodd" clip-rule="evenodd" d="M0.266088 3.35761C-0.0886961 3.71239 -0.0886959 4.28761 0.266088 4.64239L3.35761 7.73391C3.71239 8.0887 4.28761 8.0887 4.64239 7.73391L7.73391 4.64239C8.0887 4.28761 8.0887 3.71239 7.73391 3.35761L4.64239 0.266088C4.28761 -0.0886961 3.71239 -0.0886959 3.35761 0.266088L0.266088 3.35761Z" fill="#FFC106"/>
<path fill-rule="evenodd" clip-rule="evenodd" d="M22.2661 3.35761C21.9113 3.71239 21.9113 4.28761 22.2661 4.64239L25.3576 7.73391C25.7124 8.0887 26.2876 8.0887 26.6424 7.73391L29.7339 4.64239C30.0887 4.28761 30.0887 3.71239 29.7339 3.35761L26.6424 0.266088C26.2876 -0.0886961 25.7124 -0.0886959 25.3576 0.266088L22.2661 3.35761Z" fill="#FFC106"/>
<path fill-rule="evenodd" clip-rule="evenodd" d="M44.2661 3.35761C43.9113 3.71239 43.9113 4.28761 44.2661 4.64239L47.3576 7.73391C47.7124 8.0887 48.2876 8.0887 48.6424 7.73391L51.7339 4.64239C52.0887 4.28761 52.0887 3.71239 51.7339 3.35761L48.6424 0.266088C48.2876 -0.0886961 47.7124 -0.0886959 47.3576 0.266088L44.2661 3.35761Z" fill="#FFC106"/>
<path fill-rule="evenodd" clip-rule="evenodd" d="M66.2661 3.35761C65.9113 3.71239 65.9113 4.28761 66.2661 4.64239L69.3576 7.73391C69.7124 8.0887 70.2876 8.0887 70.6424 7.73391L73.7339 4.64239C74.0887 4.28761 74.0887 3.71239 73.7339 3.35761L70.6424 0.266088C70.2876 -0.0886961 69.7124 -0.0886959 69.3576 0.266088L66.2661 3.35761Z" fill="#FFC106"/>
<path fill-rule="evenodd" clip-rule="evenodd" d="M88.2661 3.35761C87.9113 3.71239 87.9113 4.28761 88.2661 4.64239L91.3576 7.73391C91.7124 8.0887 92.2876 8.0887 92.6424 7.73391L95.7339 4.64239C96.0887 4.28761 96.0887 3.71239 95.7339 3.35761L92.6424 0.266088C92.2876 -0.0886961 91.7124 -0.0886959 91.3576 0.266088L88.2661 3.35761Z" fill="#FFC106"/>
<path fill-rule="evenodd" clip-rule="evenodd" d="M110.266 3.35761C109.911 3.71239 109.911 4.28761 110.266 4.64239L113.358 7.73391C113.712 8.0887 114.288 8.0887 114.642 7.73391L117.734 4.64239C118.089 4.28761 118.089 3.71239 117.734 3.35761L114.642 0.266088C114.288 -0.0886961 113.712 -0.0886959 113.358 0.266088L110.266 3.35761Z" fill="#FFC106"/>
<path fill-rule="evenodd" clip-rule="evenodd" d="M132.266 3.35761C131.911 3.71239 131.911 4.28761 132.266 4.64239L135.358 7.73391C135.712 8.0887 136.288 8.0887 136.642 7.73391L139.734 4.64239C140.089 4.28761 140.089 3.71239 139.734 3.35761L136.642 0.266088C136.288 -0.0886961 135.712 -0.0886959 135.358 0.266088L132.266 3.35761Z" fill="#FFC106"/>
<path fill-rule="evenodd" clip-rule="evenodd" d="M154.266 3.35761C153.911 3.71239 153.911 4.28761 154.266 4.64239L157.358 7.73391C157.712 8.0887 158.288 8.0887 158.642 7.73391L161.734 4.64239C162.089 4.28761 162.089 3.71239 161.734 3.35761L158.642 0.266088C158.288 -0.0886961 157.712 -0.0886959 157.358 0.266088L154.266 3.35761Z" fill="#FFC106"/>
<path fill-rule="evenodd" clip-rule="evenodd" d="M176.266 3.35761C175.911 3.71239 175.911 4.28761 176.266 4.64239L179.358 7.73391C179.712 8.0887 180.288 8.0887 180.642 7.73391L183.734 4.64239C184.089 4.28761 184.089 3.71239 183.734 3.35761L180.642 0.266088C180.288 -0.0886961 179.712 -0.0886959 179.358 0.266088L176.266 3.35761Z" fill="#FFC106"/>
<path fill-rule="evenodd" clip-rule="evenodd" d="M198.266 3.35761C197.911 3.71239 197.911 4.28761 198.266 4.64239L201.358 7.73391C201.712 8.0887 202.288 8.0887 202.642 7.73391L205.734 4.64239C206.089 4.28761 206.089 3.71239 205.734 3.35761L202.642 0.266088C202.288 -0.0886961 201.712 -0.0886959 201.358 0.266088L198.266 3.35761Z" fill="#FFC106"/>
<path fill-rule="evenodd" clip-rule="evenodd" d="M0.266088 25.3576C-0.0886961 25.7124 -0.0886959 26.2876 0.266088 26.6424L3.35761 29.7339C3.71239 30.0887 4.28761 30.0887 4.64239 29.7339L7.73391 26.6424C8.0887 26.2876 8.0887 25.7124 7.73391 25.3576L4.64239 22.2661C4.28761 21.9113 3.71239 21.9113 3.35761 22.2661L0.266088 25.3576Z" fill="#FFC106"/>
<path fill-rule="evenodd" clip-rule="evenodd" d="M22.2661 25.3576C21.9113 25.7124 21.9113 26.2876 22.2661 26.6424L25.3576 29.7339C25.7124 30.0887 26.2876 30.0887 26.6424 29.7339L29.7339 26.6424C30.0887 26.2876 30.0887 25.7124 29.7339 25.3576L26.6424 22.2661C26.2876 21.9113 25.7124 21.9113 25.3576 22.2661L22.2661 25.3576Z" fill="#FFC106"/>
<path fill-rule="evenodd" clip-rule="evenodd" d="M44.2661 25.3576C43.9113 25.7124 43.9113 26.2876 44.2661 26.6424L47.3576 29.7339C47.7124 30.0887 48.2876 30.0887 48.6424 29.7339L51.7339 26.6424C52.0887 26.2876 52.0887 25.7124 51.7339 25.3576L48.6424 22.2661C48.2876 21.9113 47.7124 21.9113 47.3576 22.2661L44.2661 25.3576Z" fill="#FFC106"/>
<path fill-rule="evenodd" clip-rule="evenodd" d="M66.2661 25.3576C65.9113 25.7124 65.9113 26.2876 66.2661 26.6424L69.3576 29.7339C69.7124 30.0887 70.2876 30.0887 70.6424 29.7339L73.7339 26.6424C74.0887 26.2876 74.0887 25.7124 73.7339 25.3576L70.6424 22.2661C70.2876 21.9113 69.7124 21.9113 69.3576 22.2661L66.2661 25.3576Z" fill="#FFC106"/>
<path fill-rule="evenodd" clip-rule="evenodd" d="M88.2661 25.3576C87.9113 25.7124 87.9113 26.2876 88.2661 26.6424L91.3576 29.7339C91.7124 30.0887 92.2876 30.0887 92.6424 29.7339L95.7339 26.6424C96.0887 26.2876 96.0887 25.7124 95.7339 25.3576L92.6424 22.2661C92.2876 21.9113 91.7124 21.9113 91.3576 22.2661L88.2661 25.3576Z" fill="#FFC106"/>
<path fill-rule="evenodd" clip-rule="evenodd" d="M110.266 25.3576C109.911 25.7124 109.911 26.2876 110.266 26.6424L113.358 29.7339C113.712 30.0887 114.288 30.0887 114.642 29.7339L117.734 26.6424C118.089 26.2876 118.089 25.7124 117.734 25.3576L114.642 22.2661C114.288 21.9113 113.712 21.9113 113.358 22.2661L110.266 25.3576Z" fill="#FFC106"/>
<path fill-rule="evenodd" clip-rule="evenodd" d="M132.266 25.3576C131.911 25.7124 131.911 26.2876 132.266 26.6424L135.358 29.7339C135.712 30.0887 136.288 30.0887 136.642 29.7339L139.734 26.6424C140.089 26.2876 140.089 25.7124 139.734 25.3576L136.642 22.2661C136.288 21.9113 135.712 21.9113 135.358 22.2661L132.266 25.3576Z" fill="#FFC106"/>
<path fill-rule="evenodd" clip-rule="evenodd" d="M154.266 25.3576C153.911 25.7124 153.911 26.2876 154.266 26.6424L157.358 29.7339C157.712 30.0887 158.288 30.0887 158.642 29.7339L161.734 26.6424C162.089 26.2876 162.089 25.7124 161.734 25.3576L158.642 22.2661C158.288 21.9113 157.712 21.9113 157.358 22.2661L154.266 25.3576Z" fill="#FFC106"/>
<path fill-rule="evenodd" clip-rule="evenodd" d="M176.266 25.3576C175.911 25.7124 175.911 26.2876 176.266 26.6424L179.358 29.7339C179.712 30.0887 180.288 30.0887 180.642 29.7339L183.734 26.6424C184.089 26.2876 184.089 25.7124 183.734 25.3576L180.642 22.2661C180.288 21.9113 179.712 21.9113 179.358 22.2661L176.266 25.3576Z" fill="#FFC106"/>
<path fill-rule="evenodd" clip-rule="evenodd" d="M198.266 25.3576C197.911 25.7124 197.911 26.2876 198.266 26.6424L201.358 29.7339C201.712 30.0887 202.288 30.0887 202.642 29.7339L205.734 26.6424C206.089 26.2876 206.089 25.7124 205.734 25.3576L202.642 22.2661C202.288 21.9113 201.712 21.9113 201.358 22.2661L198.266 25.3576Z" fill="#FFC106"/>
<path fill-rule="evenodd" clip-rule="evenodd" d="M0.266088 47.3576C-0.0886961 47.7124 -0.0886959 48.2876 0.266088 48.6424L3.35761 51.7339C3.71239 52.0887 4.28761 52.0887 4.64239 51.7339L7.73391 48.6424C8.0887 48.2876 8.0887 47.7124 7.73391 47.3576L4.64239 44.2661C4.28761 43.9113 3.71239 43.9113 3.35761 44.2661L0.266088 47.3576Z" fill="#FFC106"/>
<path fill-rule="evenodd" clip-rule="evenodd" d="M22.2661 47.3576C21.9113 47.7124 21.9113 48.2876 22.2661 48.6424L25.3576 51.7339C25.7124 52.0887 26.2876 52.0887 26.6424 51.7339L29.7339 48.6424C30.0887 48.2876 30.0887 47.7124 29.7339 47.3576L26.6424 44.2661C26.2876 43.9113 25.7124 43.9113 25.3576 44.2661L22.2661 47.3576Z" fill="#FFC106"/>
<path fill-rule="evenodd" clip-rule="evenodd" d="M44.2661 47.3576C43.9113 47.7124 43.9113 48.2876 44.2661 48.6424L47.3576 51.7339C47.7124 52.0887 48.2876 52.0887 48.6424 51.7339L51.7339 48.6424C52.0887 48.2876 52.0887 47.7124 51.7339 47.3576L48.6424 44.2661C48.2876 43.9113 47.7124 43.9113 47.3576 44.2661L44.2661 47.3576Z" fill="#FFC106"/>
<path fill-rule="evenodd" clip-rule="evenodd" d="M66.2661 47.3576C65.9113 47.7124 65.9113 48.2876 66.2661 48.6424L69.3576 51.7339C69.7124 52.0887 70.2876 52.0887 70.6424 51.7339L73.7339 48.6424C74.0887 48.2876 74.0887 47.7124 73.7339 47.3576L70.6424 44.2661C70.2876 43.9113 69.7124 43.9113 69.3576 44.2661L66.2661 47.3576Z" fill="#FFC106"/>
<path fill-rule="evenodd" clip-rule="evenodd" d="M88.2661 47.3576C87.9113 47.7124 87.9113 48.2876 88.2661 48.6424L91.3576 51.7339C91.7124 52.0887 92.2876 52.0887 92.6424 51.7339L95.7339 48.6424C96.0887 48.2876 96.0887 47.7124 95.7339 47.3576L92.6424 44.2661C92.2876 43.9113 91.7124 43.9113 91.3576 44.2661L88.2661 47.3576Z" fill="#FFC106"/>
<path fill-rule="evenodd" clip-rule="evenodd" d="M110.266 47.3576C109.911 47.7124 109.911 48.2876 110.266 48.6424L113.358 51.7339C113.712 52.0887 114.288 52.0887 114.642 51.7339L117.734 48.6424C118.089 48.2876 118.089 47.7124 117.734 47.3576L114.642 44.2661C114.288 43.9113 113.712 43.9113 113.358 44.2661L110.266 47.3576Z" fill="#FFC106"/>
<path fill-rule="evenodd" clip-rule="evenodd" d="M132.266 47.3576C131.911 47.7124 131.911 48.2876 132.266 48.6424L135.358 51.7339C135.712 52.0887 136.288 52.0887 136.642 51.7339L139.734 48.6424C140.089 48.2876 140.089 47.7124 139.734 47.3576L136.642 44.2661C136.288 43.9113 135.712 43.9113 135.358 44.2661L132.266 47.3576Z" fill="#FFC106"/>
<path fill-rule="evenodd" clip-rule="evenodd" d="M154.266 47.3576C153.911 47.7124 153.911 48.2876 154.266 48.6424L157.358 51.7339C157.712 52.0887 158.288 52.0887 158.642 51.7339L161.734 48.6424C162.089 48.2876 162.089 47.7124 161.734 47.3576L158.642 44.2661C158.288 43.9113 157.712 43.9113 157.358 44.2661L154.266 47.3576Z" fill="#FFC106"/>
<path fill-rule="evenodd" clip-rule="evenodd" d="M176.266 47.3576C175.911 47.7124 175.911 48.2876 176.266 48.6424L179.358 51.7339C179.712 52.0887 180.288 52.0887 180.642 51.7339L183.734 48.6424C184.089 48.2876 184.089 47.7124 183.734 47.3576L180.642 44.2661C180.288 43.9113 179.712 43.9113 179.358 44.2661L176.266 47.3576Z" fill="#FFC106"/>
<path fill-rule="evenodd" clip-rule="evenodd" d="M198.266 47.3576C197.911 47.7124 197.911 48.2876 198.266 48.6424L201.358 51.7339C201.712 52.0887 202.288 52.0887 202.642 51.7339L205.734 48.6424C206.089 48.2876 206.089 47.7124 205.734 47.3576L202.642 44.2661C202.288 43.9113 201.712 43.9113 201.358 44.2661L198.266 47.3576Z" fill="#FFC106"/>
<path fill-rule="evenodd" clip-rule="evenodd" d="M0.266088 69.3576C-0.0886961 69.7124 -0.0886959 70.2876 0.266088 70.6424L3.35761 73.7339C3.71239 74.0887 4.28761 74.0887 4.64239 73.7339L7.73391 70.6424C8.0887 70.2876 8.0887 69.7124 7.73391 69.3576L4.64239 66.2661C4.28761 65.9113 3.71239 65.9113 3.35761 66.2661L0.266088 69.3576Z" fill="#FFC106"/>
<path fill-rule="evenodd" clip-rule="evenodd" d="M22.2661 69.3576C21.9113 69.7124 21.9113 70.2876 22.2661 70.6424L25.3576 73.7339C25.7124 74.0887 26.2876 74.0887 26.6424 73.7339L29.7339 70.6424C30.0887 70.2876 30.0887 69.7124 29.7339 69.3576L26.6424 66.2661C26.2876 65.9113 25.7124 65.9113 25.3576 66.2661L22.2661 69.3576Z" fill="#FFC106"/>
<path fill-rule="evenodd" clip-rule="evenodd" d="M44.2661 69.3576C43.9113 69.7124 43.9113 70.2876 44.2661 70.6424L47.3576 73.7339C47.7124 74.0887 48.2876 74.0887 48.6424 73.7339L51.7339 70.6424C52.0887 70.2876 52.0887 69.7124 51.7339 69.3576L48.6424 66.2661C48.2876 65.9113 47.7124 65.9113 47.3576 66.2661L44.2661 69.3576Z" fill="#FFC106"/>
<path fill-rule="evenodd" clip-rule="evenodd" d="M66.2661 69.3576C65.9113 69.7124 65.9113 70.2876 66.2661 70.6424L69.3576 73.7339C69.7124 74.0887 70.2876 74.0887 70.6424 73.7339L73.7339 70.6424C74.0887 70.2876 74.0887 69.7124 73.7339 69.3576L70.6424 66.2661C70.2876 65.9113 69.7124 65.9113 69.3576 66.2661L66.2661 69.3576Z" fill="#FFC106"/>
<path fill-rule="evenodd" clip-rule="evenodd" d="M88.2661 69.3576C87.9113 69.7124 87.9113 70.2876 88.2661 70.6424L91.3576 73.7339C91.7124 74.0887 92.2876 74.0887 92.6424 73.7339L95.7339 70.6424C96.0887 70.2876 96.0887 69.7124 95.7339 69.3576L92.6424 66.2661C92.2876 65.9113 91.7124 65.9113 91.3576 66.2661L88.2661 69.3576Z" fill="#FFC106"/>
<path fill-rule="evenodd" clip-rule="evenodd" d="M110.266 69.3576C109.911 69.7124 109.911 70.2876 110.266 70.6424L113.358 73.7339C113.712 74.0887 114.288 74.0887 114.642 73.7339L117.734 70.6424C118.089 70.2876 118.089 69.7124 117.734 69.3576L114.642 66.2661C114.288 65.9113 113.712 65.9113 113.358 66.2661L110.266 69.3576Z" fill="#FFC106"/>
<path fill-rule="evenodd" clip-rule="evenodd" d="M132.266 69.3576C131.911 69.7124 131.911 70.2876 132.266 70.6424L135.358 73.7339C135.712 74.0887 136.288 74.0887 136.642 73.7339L139.734 70.6424C140.089 70.2876 140.089 69.7124 139.734 69.3576L136.642 66.2661C136.288 65.9113 135.712 65.9113 135.358 66.2661L132.266 69.3576Z" fill="#FFC106"/>
<path fill-rule="evenodd" clip-rule="evenodd" d="M154.266 69.3576C153.911 69.7124 153.911 70.2876 154.266 70.6424L157.358 73.7339C157.712 74.0887 158.288 74.0887 158.642 73.7339L161.734 70.6424C162.089 70.2876 162.089 69.7124 161.734 69.3576L158.642 66.2661C158.288 65.9113 157.712 65.9113 157.358 66.2661L154.266 69.3576Z" fill="#FFC106"/>
<path fill-rule="evenodd" clip-rule="evenodd" d="M176.266 69.3576C175.911 69.7124 175.911 70.2876 176.266 70.6424L179.358 73.7339C179.712 74.0887 180.288 74.0887 180.642 73.7339L183.734 70.6424C184.089 70.2876 184.089 69.7124 183.734 69.3576L180.642 66.2661C180.288 65.9113 179.712 65.9113 179.358 66.2661L176.266 69.3576Z" fill="#FFC106"/>
<path fill-rule="evenodd" clip-rule="evenodd" d="M198.266 69.3576C197.911 69.7124 197.911 70.2876 198.266 70.6424L201.358 73.7339C201.712 74.0887 202.288 74.0887 202.642 73.7339L205.734 70.6424C206.089 70.2876 206.089 69.7124 205.734 69.3576L202.642 66.2661C202.288 65.9113 201.712 65.9113 201.358 66.2661L198.266 69.3576Z" fill="#FFC106"/>
<path fill-rule="evenodd" clip-rule="evenodd" d="M0.266088 91.3576C-0.0886961 91.7124 -0.0886959 92.2876 0.266088 92.6424L3.35761 95.7339C3.71239 96.0887 4.28761 96.0887 4.64239 95.7339L7.73391 92.6424C8.0887 92.2876 8.0887 91.7124 7.73391 91.3576L4.64239 88.2661C4.28761 87.9113 3.71239 87.9113 3.35761 88.2661L0.266088 91.3576Z" fill="#FFC106"/>
<path fill-rule="evenodd" clip-rule="evenodd" d="M22.2661 91.3576C21.9113 91.7124 21.9113 92.2876 22.2661 92.6424L25.3576 95.7339C25.7124 96.0887 26.2876 96.0887 26.6424 95.7339L29.7339 92.6424C30.0887 92.2876 30.0887 91.7124 29.7339 91.3576L26.6424 88.2661C26.2876 87.9113 25.7124 87.9113 25.3576 88.2661L22.2661 91.3576Z" fill="#FFC106"/>
<path fill-rule="evenodd" clip-rule="evenodd" d="M44.2661 91.3576C43.9113 91.7124 43.9113 92.2876 44.2661 92.6424L47.3576 95.7339C47.7124 96.0887 48.2876 96.0887 48.6424 95.7339L51.7339 92.6424C52.0887 92.2876 52.0887 91.7124 51.7339 91.3576L48.6424 88.2661C48.2876 87.9113 47.7124 87.9113 47.3576 88.2661L44.2661 91.3576Z" fill="#FFC106"/>
<path fill-rule="evenodd" clip-rule="evenodd" d="M66.2661 91.3576C65.9113 91.7124 65.9113 92.2876 66.2661 92.6424L69.3576 95.7339C69.7124 96.0887 70.2876 96.0887 70.6424 95.7339L73.7339 92.6424C74.0887 92.2876 74.0887 91.7124 73.7339 91.3576L70.6424 88.2661C70.2876 87.9113 69.7124 87.9113 69.3576 88.2661L66.2661 91.3576Z" fill="#FFC106"/>
<path fill-rule="evenodd" clip-rule="evenodd" d="M88.2661 91.3576C87.9113 91.7124 87.9113 92.2876 88.2661 92.6424L91.3576 95.7339C91.7124 96.0887 92.2876 96.0887 92.6424 95.7339L95.7339 92.6424C96.0887 92.2876 96.0887 91.7124 95.7339 91.3576L92.6424 88.2661C92.2876 87.9113 91.7124 87.9113 91.3576 88.2661L88.2661 91.3576Z" fill="#FFC106"/>
<path fill-rule="evenodd" clip-rule="evenodd" d="M110.266 91.3576C109.911 91.7124 109.911 92.2876 110.266 92.6424L113.358 95.7339C113.712 96.0887 114.288 96.0887 114.642 95.7339L117.734 92.6424C118.089 92.2876 118.089 91.7124 117.734 91.3576L114.642 88.2661C114.288 87.9113 113.712 87.9113 113.358 88.2661L110.266 91.3576Z" fill="#FFC106"/>
<path fill-rule="evenodd" clip-rule="evenodd" d="M132.266 91.3576C131.911 91.7124 131.911 92.2876 132.266 92.6424L135.358 95.7339C135.712 96.0887 136.288 96.0887 136.642 95.7339L139.734 92.6424C140.089 92.2876 140.089 91.7124 139.734 91.3576L136.642 88.2661C136.288 87.9113 135.712 87.9113 135.358 88.2661L132.266 91.3576Z" fill="#FFC106"/>
<path fill-rule="evenodd" clip-rule="evenodd" d="M154.266 91.3576C153.911 91.7124 153.911 92.2876 154.266 92.6424L157.358 95.7339C157.712 96.0887 158.288 96.0887 158.642 95.7339L161.734 92.6424C162.089 92.2876 162.089 91.7124 161.734 91.3576L158.642 88.2661C158.288 87.9113 157.712 87.9113 157.358 88.2661L154.266 91.3576Z" fill="#FFC106"/>
<path fill-rule="evenodd" clip-rule="evenodd" d="M176.266 91.3576C175.911 91.7124 175.911 92.2876 176.266 92.6424L179.358 95.7339C179.712 96.0887 180.288 96.0887 180.642 95.7339L183.734 92.6424C184.089 92.2876 184.089 91.7124 183.734 91.3576L180.642 88.2661C180.288 87.9113 179.712 87.9113 179.358 88.2661L176.266 91.3576Z" fill="#FFC106"/>
<path fill-rule="evenodd" clip-rule="evenodd" d="M198.266 91.3576C197.911 91.7124 197.911 92.2876 198.266 92.6424L201.358 95.7339C201.712 96.0887 202.288 96.0887 202.642 95.7339L205.734 92.6424C206.089 92.2876 206.089 91.7124 205.734 91.3576L202.642 88.2661C202.288 87.9113 201.712 87.9113 201.358 88.2661L198.266 91.3576Z" fill="#FFC106"/>
<path fill-rule="evenodd" clip-rule="evenodd" d="M0.266088 113.358C-0.0886961 113.712 -0.0886959 114.288 0.266088 114.642L3.35761 117.734C3.71239 118.089 4.28761 118.089 4.64239 117.734L7.73391 114.642C8.0887 114.288 8.0887 113.712 7.73391 113.358L4.64239 110.266C4.28761 109.911 3.71239 109.911 3.35761 110.266L0.266088 113.358Z" fill="#FFC106"/>
<path fill-rule="evenodd" clip-rule="evenodd" d="M22.2661 113.358C21.9113 113.712 21.9113 114.288 22.2661 114.642L25.3576 117.734C25.7124 118.089 26.2876 118.089 26.6424 117.734L29.7339 114.642C30.0887 114.288 30.0887 113.712 29.7339 113.358L26.6424 110.266C26.2876 109.911 25.7124 109.911 25.3576 110.266L22.2661 113.358Z" fill="#FFC106"/>
<path fill-rule="evenodd" clip-rule="evenodd" d="M44.2661 113.358C43.9113 113.712 43.9113 114.288 44.2661 114.642L47.3576 117.734C47.7124 118.089 48.2876 118.089 48.6424 117.734L51.7339 114.642C52.0887 114.288 52.0887 113.712 51.7339 113.358L48.6424 110.266C48.2876 109.911 47.7124 109.911 47.3576 110.266L44.2661 113.358Z" fill="#FFC106"/>
<path fill-rule="evenodd" clip-rule="evenodd" d="M66.2661 113.358C65.9113 113.712 65.9113 114.288 66.2661 114.642L69.3576 117.734C69.7124 118.089 70.2876 118.089 70.6424 117.734L73.7339 114.642C74.0887 114.288 74.0887 113.712 73.7339 113.358L70.6424 110.266C70.2876 109.911 69.7124 109.911 69.3576 110.266L66.2661 113.358Z" fill="#FFC106"/>
<path fill-rule="evenodd" clip-rule="evenodd" d="M88.2661 113.358C87.9113 113.712 87.9113 114.288 88.2661 114.642L91.3576 117.734C91.7124 118.089 92.2876 118.089 92.6424 117.734L95.7339 114.642C96.0887 114.288 96.0887 113.712 95.7339 113.358L92.6424 110.266C92.2876 109.911 91.7124 109.911 91.3576 110.266L88.2661 113.358Z" fill="#FFC106"/>
<path fill-rule="evenodd" clip-rule="evenodd" d="M110.266 113.358C109.911 113.712 109.911 114.288 110.266 114.642L113.358 117.734C113.712 118.089 114.288 118.089 114.642 117.734L117.734 114.642C118.089 114.288 118.089 113.712 117.734 113.358L114.642 110.266C114.288 109.911 113.712 109.911 113.358 110.266L110.266 113.358Z" fill="#FFC106"/>
<path fill-rule="evenodd" clip-rule="evenodd" d="M132.266 113.358C131.911 113.712 131.911 114.288 132.266 114.642L135.358 117.734C135.712 118.089 136.288 118.089 136.642 117.734L139.734 114.642C140.089 114.288 140.089 113.712 139.734 113.358L136.642 110.266C136.288 109.911 135.712 109.911 135.358 110.266L132.266 113.358Z" fill="#FFC106"/>
<path fill-rule="evenodd" clip-rule="evenodd" d="M154.266 113.358C153.911 113.712 153.911 114.288 154.266 114.642L157.358 117.734C157.712 118.089 158.288 118.089 158.642 117.734L161.734 114.642C162.089 114.288 162.089 113.712 161.734 113.358L158.642 110.266C158.288 109.911 157.712 109.911 157.358 110.266L154.266 113.358Z" fill="#FFC106"/>
<path fill-rule="evenodd" clip-rule="evenodd" d="M176.266 113.358C175.911 113.712 175.911 114.288 176.266 114.642L179.358 117.734C179.712 118.089 180.288 118.089 180.642 117.734L183.734 114.642C184.089 114.288 184.089 113.712 183.734 113.358L180.642 110.266C180.288 109.911 179.712 109.911 179.358 110.266L176.266 113.358Z" fill="#FFC106"/>
<path fill-rule="evenodd" clip-rule="evenodd" d="M198.266 113.358C197.911 113.712 197.911 114.288 198.266 114.642L201.358 117.734C201.712 118.089 202.288 118.089 202.642 117.734L205.734 114.642C206.089 114.288 206.089 113.712 205.734 113.358L202.642 110.266C202.288 109.911 201.712 109.911 201.358 110.266L198.266 113.358Z" fill="#FFC106"/>
<path fill-rule="evenodd" clip-rule="evenodd" d="M0.266088 135.358C-0.0886961 135.712 -0.0886959 136.288 0.266088 136.642L3.35761 139.734C3.71239 140.089 4.28761 140.089 4.64239 139.734L7.73391 136.642C8.0887 136.288 8.0887 135.712 7.73391 135.358L4.64239 132.266C4.28761 131.911 3.71239 131.911 3.35761 132.266L0.266088 135.358Z" fill="#FFC106"/>
<path fill-rule="evenodd" clip-rule="evenodd" d="M22.2661 135.358C21.9113 135.712 21.9113 136.288 22.2661 136.642L25.3576 139.734C25.7124 140.089 26.2876 140.089 26.6424 139.734L29.7339 136.642C30.0887 136.288 30.0887 135.712 29.7339 135.358L26.6424 132.266C26.2876 131.911 25.7124 131.911 25.3576 132.266L22.2661 135.358Z" fill="#FFC106"/>
<path fill-rule="evenodd" clip-rule="evenodd" d="M44.2661 135.358C43.9113 135.712 43.9113 136.288 44.2661 136.642L47.3576 139.734C47.7124 140.089 48.2876 140.089 48.6424 139.734L51.7339 136.642C52.0887 136.288 52.0887 135.712 51.7339 135.358L48.6424 132.266C48.2876 131.911 47.7124 131.911 47.3576 132.266L44.2661 135.358Z" fill="#FFC106"/>
<path fill-rule="evenodd" clip-rule="evenodd" d="M66.2661 135.358C65.9113 135.712 65.9113 136.288 66.2661 136.642L69.3576 139.734C69.7124 140.089 70.2876 140.089 70.6424 139.734L73.7339 136.642C74.0887 136.288 74.0887 135.712 73.7339 135.358L70.6424 132.266C70.2876 131.911 69.7124 131.911 69.3576 132.266L66.2661 135.358Z" fill="#FFC106"/>
<path fill-rule="evenodd" clip-rule="evenodd" d="M88.2661 135.358C87.9113 135.712 87.9113 136.288 88.2661 136.642L91.3576 139.734C91.7124 140.089 92.2876 140.089 92.6424 139.734L95.7339 136.642C96.0887 136.288 96.0887 135.712 95.7339 135.358L92.6424 132.266C92.2876 131.911 91.7124 131.911 91.3576 132.266L88.2661 135.358Z" fill="#FFC106"/>
<path fill-rule="evenodd" clip-rule="evenodd" d="M110.266 135.358C109.911 135.712 109.911 136.288 110.266 136.642L113.358 139.734C113.712 140.089 114.288 140.089 114.642 139.734L117.734 136.642C118.089 136.288 118.089 135.712 117.734 135.358L114.642 132.266C114.288 131.911 113.712 131.911 113.358 132.266L110.266 135.358Z" fill="#FFC106"/>
<path fill-rule="evenodd" clip-rule="evenodd" d="M132.266 135.358C131.911 135.712 131.911 136.288 132.266 136.642L135.358 139.734C135.712 140.089 136.288 140.089 136.642 139.734L139.734 136.642C140.089 136.288 140.089 135.712 139.734 135.358L136.642 132.266C136.288 131.911 135.712 131.911 135.358 132.266L132.266 135.358Z" fill="#FFC106"/>
<path fill-rule="evenodd" clip-rule="evenodd" d="M154.266 135.358C153.911 135.712 153.911 136.288 154.266 136.642L157.358 139.734C157.712 140.089 158.288 140.089 158.642 139.734L161.734 136.642C162.089 136.288 162.089 135.712 161.734 135.358L158.642 132.266C158.288 131.911 157.712 131.911 157.358 132.266L154.266 135.358Z" fill="#FFC106"/>
<path fill-rule="evenodd" clip-rule="evenodd" d="M176.266 135.358C175.911 135.712 175.911 136.288 176.266 136.642L179.358 139.734C179.712 140.089 180.288 140.089 180.642 139.734L183.734 136.642C184.089 136.288 184.089 135.712 183.734 135.358L180.642 132.266C180.288 131.911 179.712 131.911 179.358 132.266L176.266 135.358Z" fill="#FFC106"/>
<path fill-rule="evenodd" clip-rule="evenodd" d="M198.266 135.358C197.911 135.712 197.911 136.288 198.266 136.642L201.358 139.734C201.712 140.089 202.288 140.089 202.642 139.734L205.734 136.642C206.089 136.288 206.089 135.712 205.734 135.358L202.642 132.266C202.288 131.911 201.712 131.911 201.358 132.266L198.266 135.358Z" fill="#FFC106"/>
<path fill-rule="evenodd" clip-rule="evenodd" d="M0.266088 157.358C-0.0886961 157.712 -0.0886959 158.288 0.266088 158.642L3.35761 161.734C3.71239 162.089 4.28761 162.089 4.64239 161.734L7.73391 158.642C8.0887 158.288 8.0887 157.712 7.73391 157.358L4.64239 154.266C4.28761 153.911 3.71239 153.911 3.35761 154.266L0.266088 157.358Z" fill="#FFC106"/>
<path fill-rule="evenodd" clip-rule="evenodd" d="M22.2661 157.358C21.9113 157.712 21.9113 158.288 22.2661 158.642L25.3576 161.734C25.7124 162.089 26.2876 162.089 26.6424 161.734L29.7339 158.642C30.0887 158.288 30.0887 157.712 29.7339 157.358L26.6424 154.266C26.2876 153.911 25.7124 153.911 25.3576 154.266L22.2661 157.358Z" fill="#FFC106"/>
<path fill-rule="evenodd" clip-rule="evenodd" d="M44.2661 157.358C43.9113 157.712 43.9113 158.288 44.2661 158.642L47.3576 161.734C47.7124 162.089 48.2876 162.089 48.6424 161.734L51.7339 158.642C52.0887 158.288 52.0887 157.712 51.7339 157.358L48.6424 154.266C48.2876 153.911 47.7124 153.911 47.3576 154.266L44.2661 157.358Z" fill="#FFC106"/>
<path fill-rule="evenodd" clip-rule="evenodd" d="M66.2661 157.358C65.9113 157.712 65.9113 158.288 66.2661 158.642L69.3576 161.734C69.7124 162.089 70.2876 162.089 70.6424 161.734L73.7339 158.642C74.0887 158.288 74.0887 157.712 73.7339 157.358L70.6424 154.266C70.2876 153.911 69.7124 153.911 69.3576 154.266L66.2661 157.358Z" fill="#FFC106"/>
<path fill-rule="evenodd" clip-rule="evenodd" d="M88.2661 157.358C87.9113 157.712 87.9113 158.288 88.2661 158.642L91.3576 161.734C91.7124 162.089 92.2876 162.089 92.6424 161.734L95.7339 158.642C96.0887 158.288 96.0887 157.712 95.7339 157.358L92.6424 154.266C92.2876 153.911 91.7124 153.911 91.3576 154.266L88.2661 157.358Z" fill="#FFC106"/>
<path fill-rule="evenodd" clip-rule="evenodd" d="M110.266 157.358C109.911 157.712 109.911 158.288 110.266 158.642L113.358 161.734C113.712 162.089 114.288 162.089 114.642 161.734L117.734 158.642C118.089 158.288 118.089 157.712 117.734 157.358L114.642 154.266C114.288 153.911 113.712 153.911 113.358 154.266L110.266 157.358Z" fill="#FFC106"/>
<path fill-rule="evenodd" clip-rule="evenodd" d="M132.266 157.358C131.911 157.712 131.911 158.288 132.266 158.642L135.358 161.734C135.712 162.089 136.288 162.089 136.642 161.734L139.734 158.642C140.089 158.288 140.089 157.712 139.734 157.358L136.642 154.266C136.288 153.911 135.712 153.911 135.358 154.266L132.266 157.358Z" fill="#FFC106"/>
<path fill-rule="evenodd" clip-rule="evenodd" d="M154.266 157.358C153.911 157.712 153.911 158.288 154.266 158.642L157.358 161.734C157.712 162.089 158.288 162.089 158.642 161.734L161.734 158.642C162.089 158.288 162.089 157.712 161.734 157.358L158.642 154.266C158.288 153.911 157.712 153.911 157.358 154.266L154.266 157.358Z" fill="#FFC106"/>
<path fill-rule="evenodd" clip-rule="evenodd" d="M176.266 157.358C175.911 157.712 175.911 158.288 176.266 158.642L179.358 161.734C179.712 162.089 180.288 162.089 180.642 161.734L183.734 158.642C184.089 158.288 184.089 157.712 183.734 157.358L180.642 154.266C180.288 153.911 179.712 153.911 179.358 154.266L176.266 157.358Z" fill="#FFC106"/>
<path fill-rule="evenodd" clip-rule="evenodd" d="M198.266 157.358C197.911 157.712 197.911 158.288 198.266 158.642L201.358 161.734C201.712 162.089 202.288 162.089 202.642 161.734L205.734 158.642C206.089 158.288 206.089 157.712 205.734 157.358L202.642 154.266C202.288 153.911 201.712 153.911 201.358 154.266L198.266 157.358Z" fill="#FFC106"/>
<path fill-rule="evenodd" clip-rule="evenodd" d="M0.266088 179.358C-0.0886961 179.712 -0.0886959 180.288 0.266088 180.642L3.35761 183.734C3.71239 184.089 4.28761 184.089 4.64239 183.734L7.73391 180.642C8.0887 180.288 8.0887 179.712 7.73391 179.358L4.64239 176.266C4.28761 175.911 3.71239 175.911 3.35761 176.266L0.266088 179.358Z" fill="#FFC106"/>
<path fill-rule="evenodd" clip-rule="evenodd" d="M22.2661 179.358C21.9113 179.712 21.9113 180.288 22.2661 180.642L25.3576 183.734C25.7124 184.089 26.2876 184.089 26.6424 183.734L29.7339 180.642C30.0887 180.288 30.0887 179.712 29.7339 179.358L26.6424 176.266C26.2876 175.911 25.7124 175.911 25.3576 176.266L22.2661 179.358Z" fill="#FFC106"/>
<path fill-rule="evenodd" clip-rule="evenodd" d="M44.2661 179.358C43.9113 179.712 43.9113 180.288 44.2661 180.642L47.3576 183.734C47.7124 184.089 48.2876 184.089 48.6424 183.734L51.7339 180.642C52.0887 180.288 52.0887 179.712 51.7339 179.358L48.6424 176.266C48.2876 175.911 47.7124 175.911 47.3576 176.266L44.2661 179.358Z" fill="#FFC106"/>
<path fill-rule="evenodd" clip-rule="evenodd" d="M66.2661 179.358C65.9113 179.712 65.9113 180.288 66.2661 180.642L69.3576 183.734C69.7124 184.089 70.2876 184.089 70.6424 183.734L73.7339 180.642C74.0887 180.288 74.0887 179.712 73.7339 179.358L70.6424 176.266C70.2876 175.911 69.7124 175.911 69.3576 176.266L66.2661 179.358Z" fill="#FFC106"/>
<path fill-rule="evenodd" clip-rule="evenodd" d="M88.2661 179.358C87.9113 179.712 87.9113 180.288 88.2661 180.642L91.3576 183.734C91.7124 184.089 92.2876 184.089 92.6424 183.734L95.7339 180.642C96.0887 180.288 96.0887 179.712 95.7339 179.358L92.6424 176.266C92.2876 175.911 91.7124 175.911 91.3576 176.266L88.2661 179.358Z" fill="#FFC106"/>
<path fill-rule="evenodd" clip-rule="evenodd" d="M110.266 179.358C109.911 179.712 109.911 180.288 110.266 180.642L113.358 183.734C113.712 184.089 114.288 184.089 114.642 183.734L117.734 180.642C118.089 180.288 118.089 179.712 117.734 179.358L114.642 176.266C114.288 175.911 113.712 175.911 113.358 176.266L110.266 179.358Z" fill="#FFC106"/>
<path fill-rule="evenodd" clip-rule="evenodd" d="M132.266 179.358C131.911 179.712 131.911 180.288 132.266 180.642L135.358 183.734C135.712 184.089 136.288 184.089 136.642 183.734L139.734 180.642C140.089 180.288 140.089 179.712 139.734 179.358L136.642 176.266C136.288 175.911 135.712 175.911 135.358 176.266L132.266 179.358Z" fill="#FFC106"/>
<path fill-rule="evenodd" clip-rule="evenodd" d="M154.266 179.358C153.911 179.712 153.911 180.288 154.266 180.642L157.358 183.734C157.712 184.089 158.288 184.089 158.642 183.734L161.734 180.642C162.089 180.288 162.089 179.712 161.734 179.358L158.642 176.266C158.288 175.911 157.712 175.911 157.358 176.266L154.266 179.358Z" fill="#FFC106"/>
<path fill-rule="evenodd" clip-rule="evenodd" d="M176.266 179.358C175.911 179.712 175.911 180.288 176.266 180.642L179.358 183.734C179.712 184.089 180.288 184.089 180.642 183.734L183.734 180.642C184.089 180.288 184.089 179.712 183.734 179.358L180.642 176.266C180.288 175.911 179.712 175.911 179.358 176.266L176.266 179.358Z" fill="#FFC106"/>
<path fill-rule="evenodd" clip-rule="evenodd" d="M198.266 179.358C197.911 179.712 197.911 180.288 198.266 180.642L201.358 183.734C201.712 184.089 202.288 184.089 202.642 183.734L205.734 180.642C206.089 180.288 206.089 179.712 205.734 179.358L202.642 176.266C202.288 175.911 201.712 175.911 201.358 176.266L198.266 179.358Z" fill="#FFC106"/>
<path fill-rule="evenodd" clip-rule="evenodd" d="M0.266088 201.358C-0.0886961 201.712 -0.0886959 202.288 0.266088 202.642L3.35761 205.734C3.71239 206.089 4.28761 206.089 4.64239 205.734L7.73391 202.642C8.0887 202.288 8.0887 201.712 7.73391 201.358L4.64239 198.266C4.28761 197.911 3.71239 197.911 3.35761 198.266L0.266088 201.358Z" fill="#FFC106"/>
<path fill-rule="evenodd" clip-rule="evenodd" d="M22.2661 201.358C21.9113 201.712 21.9113 202.288 22.2661 202.642L25.3576 205.734C25.7124 206.089 26.2876 206.089 26.6424 205.734L29.7339 202.642C30.0887 202.288 30.0887 201.712 29.7339 201.358L26.6424 198.266C26.2876 197.911 25.7124 197.911 25.3576 198.266L22.2661 201.358Z" fill="#FFC106"/>
<path fill-rule="evenodd" clip-rule="evenodd" d="M44.2661 201.358C43.9113 201.712 43.9113 202.288 44.2661 202.642L47.3576 205.734C47.7124 206.089 48.2876 206.089 48.6424 205.734L51.7339 202.642C52.0887 202.288 52.0887 201.712 51.7339 201.358L48.6424 198.266C48.2876 197.911 47.7124 197.911 47.3576 198.266L44.2661 201.358Z" fill="#FFC106"/>
<path fill-rule="evenodd" clip-rule="evenodd" d="M66.2661 201.358C65.9113 201.712 65.9113 202.288 66.2661 202.642L69.3576 205.734C69.7124 206.089 70.2876 206.089 70.6424 205.734L73.7339 202.642C74.0887 202.288 74.0887 201.712 73.7339 201.358L70.6424 198.266C70.2876 197.911 69.7124 197.911 69.3576 198.266L66.2661 201.358Z" fill="#FFC106"/>
<path fill-rule="evenodd" clip-rule="evenodd" d="M88.2661 201.358C87.9113 201.712 87.9113 202.288 88.2661 202.642L91.3576 205.734C91.7124 206.089 92.2876 206.089 92.6424 205.734L95.7339 202.642C96.0887 202.288 96.0887 201.712 95.7339 201.358L92.6424 198.266C92.2876 197.911 91.7124 197.911 91.3576 198.266L88.2661 201.358Z" fill="#FFC106"/>
<path fill-rule="evenodd" clip-rule="evenodd" d="M110.266 201.358C109.911 201.712 109.911 202.288 110.266 202.642L113.358 205.734C113.712 206.089 114.288 206.089 114.642 205.734L117.734 202.642C118.089 202.288 118.089 201.712 117.734 201.358L114.642 198.266C114.288 197.911 113.712 197.911 113.358 198.266L110.266 201.358Z" fill="#FFC106"/>
<path fill-rule="evenodd" clip-rule="evenodd" d="M132.266 201.358C131.911 201.712 131.911 202.288 132.266 202.642L135.358 205.734C135.712 206.089 136.288 206.089 136.642 205.734L139.734 202.642C140.089 202.288 140.089 201.712 139.734 201.358L136.642 198.266C136.288 197.911 135.712 197.911 135.358 198.266L132.266 201.358Z" fill="#FFC106"/>
<path fill-rule="evenodd" clip-rule="evenodd" d="M154.266 201.358C153.911 201.712 153.911 202.288 154.266 202.642L157.358 205.734C157.712 206.089 158.288 206.089 158.642 205.734L161.734 202.642C162.089 202.288 162.089 201.712 161.734 201.358L158.642 198.266C158.288 197.911 157.712 197.911 157.358 198.266L154.266 201.358Z" fill="#FFC106"/>
<path fill-rule="evenodd" clip-rule="evenodd" d="M176.266 201.358C175.911 201.712 175.911 202.288 176.266 202.642L179.358 205.734C179.712 206.089 180.288 206.089 180.642 205.734L183.734 202.642C184.089 202.288 184.089 201.712 183.734 201.358L180.642 198.266C180.288 197.911 179.712 197.911 179.358 198.266L176.266 201.358Z" fill="#FFC106"/>
<path fill-rule="evenodd" clip-rule="evenodd" d="M198.266 201.358C197.911 201.712 197.911 202.288 198.266 202.642L201.358 205.734C201.712 206.089 202.288 206.089 202.642 205.734L205.734 202.642C206.089 202.288 206.089 201.712 205.734 201.358L202.642 198.266C202.288 197.911 201.712 197.911 201.358 198.266L198.266 201.358Z" fill="#FFC106"/>
</svg>
