<?xml version="1.0" standalone="no"?>
<!DOCTYPE svg PUBLIC "-//W3C//DTD SVG 20010904//EN"
 "http://www.w3.org/TR/2001/REC-SVG-20010904/DTD/svg10.dtd">
<svg version="1.0" xmlns="http://www.w3.org/2000/svg"
 width="641.000000pt" height="600.000000pt" viewBox="0 0 641.000000 600.000000"
 preserveAspectRatio="xMidYMid meet">

<g transform="translate(0.000000,600.000000) scale(0.100000,-0.100000)"
fill="#000000" stroke="none">
<path d="M95 5986 c-41 -18 -83 -69 -90 -109 -3 -18 -4 -980 -3 -2139 l3
-2107 21 -27 c11 -15 33 -37 48 -48 26 -20 43 -21 476 -26 436 -5 449 -6 477
-26 15 -12 37 -36 48 -55 19 -33 20 -57 25 -691 5 -647 5 -657 26 -685 11 -15
36 -38 54 -51 l33 -22 2548 2 2548 3 27 21 c15 11 37 33 48 48 l21 27 0 2199
0 2199 -21 27 c-11 15 -33 37 -48 48 -27 21 -29 21 -1859 26 -1820 5 -1832 5
-1867 25 -19 12 -43 36 -55 55 -19 34 -20 54 -25 627 -5 581 -5 592 -26 620
-11 15 -36 38 -54 51 l-33 22 -1146 0 c-930 -1 -1152 -3 -1176 -14z"/>
</g>
</svg>
