<svg width="688" height="259" viewBox="0 0 688 259" fill="none" xmlns="http://www.w3.org/2000/svg">
<path fill-rule="evenodd" clip-rule="evenodd" d="M688 16.24V171.92C688 180.757 680.837 187.92 672 187.92H604.145C595.308 187.92 588.145 195.084 588.145 203.92V242.96C588.145 251.797 580.981 258.96 572.145 258.96H16C7.16345 258.96 0 251.797 0 242.96V92.1186C0 88.2724 4.50922 85.6797 8.35547 85.6797H211.9C220.736 85.6797 227.9 78.5163 227.9 69.6797V16.24C227.9 7.4034 235.063 0.23996 243.9 0.23996H672C680.837 0.23996 688 7.4034 688 16.24Z" fill="#30C4FF"/>
</svg>
